<?xml version="1.0"?>
<svg xmlns="http://www.w3.org/2000/svg" xmlns:xlink="http://www.w3.org/1999/xlink" version="1.1" id="Capa_1" x="0px" y="0px" viewBox="0 0 384 384" style="enable-background:new 0 0 384 384;" xml:space="preserve" width="512px" height="512px" class=""><g><g>
	<g>
		<path d="M352,32v32h-32V0H64v64H32V32H0v32v32v32h32V96h32v128H32v-32H0v32v96v32h32v-32h32v64h256v-64h32v32h32v-32v-96v-32h-32    v32h-32V96h32v32h32V96V64V32H352z M96,96V64V32h192v32v32v128H96V96z M288,352H96v-32h192V352z M352,256v32h-32h-32H96H64H32v-32    H352z" data-original="#000000" class="active-path" data-old_color="#fab702" fill="#fab702"/>
	</g>
</g></g> </svg>
