<?xml version="1.0"?>
<svg xmlns="http://www.w3.org/2000/svg" viewBox="-31 0 512 512" width="512px" height="512px"><g><path d="m439.554688 30.703125c-3.925782-1.246094-97.574219-30.703125-214.554688-30.703125s-210.628906 29.457031-214.554688 30.703125l-10.445312 3.339844v55.957031h450v-55.957031zm0 0" data-original="#000000" class="active-path" data-old_color="#fab702" fill="#fab702"/><path d="m180 241h90v30h-90zm0 0" data-original="#000000" class="active-path" data-old_color="#fab702" fill="#fab702"/><path d="m30 512h60v-361h270v361h60v-392h-390zm0 0" data-original="#000000" class="active-path" data-old_color="#fab702" fill="#fab702"/><path d="m120 512h210v-151h-15c-8.277344 0-15 6.722656-15 15h-30c0-24.8125 20.1875-45 45-45h15v-150h-210zm30-301h150v90h-150zm0 0" data-original="#000000" class="active-path" data-old_color="#fab702" fill="#fab702"/></g> </svg>
