<?xml version="1.0"?>
<svg xmlns="http://www.w3.org/2000/svg" height="512px" viewBox="0 0 480.04752 480" width="512px" class=""><g><path d="m479.203125 148.449219-48-96c-1.359375-2.726563-4.152344-4.441407-7.199219-4.425781h-80v-40c0-4.417969-3.582031-8.0000005-8-8.0000005h-192c-4.417968 0-8 3.5820315-8 8.0000005v40h-80c-3.03125 0-5.804687 1.710937-7.160156 4.425781l-48 96c-1.238281 2.480469-1.105469 5.425781.351562 7.78125 1.460938 2.359375 4.035157 3.792969 6.808594 3.792969h8v312c0 4.417968 3.582032 8 8 8h432c4.417969 0 8-3.582032 8-8v-312h8c2.78125.015624 5.367188-1.414063 6.835938-3.773438 1.46875-2.363281 1.605468-5.316406.363281-7.800781zm-327.199219-132.425781h176v32h-176zm-91.054687 48h358.109375l40 80h-438.109375zm19.054687 400v-48h112v48zm208 0v-48h112v48zm160 0h-32v-56c0-4.417969-3.582031-8-8-8h-128c-4.417968 0-8 3.582031-8 8v56h-64v-56c0-4.417969-3.582031-8-8-8h-128c-4.417968 0-8 3.582031-8 8v56h-32v-304h416zm0 0" data-original="#000000" class="active-path" data-old_color="#fab702" fill="#fab702"/><path d="m72.003906 240.023438h48c4.417969 0 8-3.582032 8-8v-48c0-4.417969-3.582031-8-8-8h-48c-4.417968 0-8 3.582031-8 8v48c0 4.417968 3.582032 8 8 8zm8-48h32v32h-32zm0 0" data-original="#000000" class="active-path" data-old_color="#fab702" fill="#fab702"/><path d="m168.003906 240.023438h48c4.417969 0 8-3.582032 8-8v-48c0-4.417969-3.582031-8-8-8h-48c-4.417968 0-8 3.582031-8 8v48c0 4.417968 3.582032 8 8 8zm8-48h32v32h-32zm0 0" data-original="#000000" class="active-path" data-old_color="#fab702" fill="#fab702"/><path d="m264.003906 240.023438h48c4.417969 0 8-3.582032 8-8v-48c0-4.417969-3.582031-8-8-8h-48c-4.417968 0-8 3.582031-8 8v48c0 4.417968 3.582032 8 8 8zm8-48h32v32h-32zm0 0" data-original="#000000" class="active-path" data-old_color="#fab702" fill="#fab702"/><path d="m360.003906 240.023438h48c4.417969 0 8-3.582032 8-8v-48c0-4.417969-3.582031-8-8-8h-48c-4.417968 0-8 3.582031-8 8v48c0 4.417968 3.582032 8 8 8zm8-48h32v32h-32zm0 0" data-original="#000000" class="active-path" data-old_color="#fab702" fill="#fab702"/><path d="m72.003906 312.023438h48c4.417969 0 8-3.582032 8-8v-48c0-4.417969-3.582031-8-8-8h-48c-4.417968 0-8 3.582031-8 8v48c0 4.417968 3.582032 8 8 8zm8-48h32v32h-32zm0 0" data-original="#000000" class="active-path" data-old_color="#fab702" fill="#fab702"/><path d="m168.003906 312.023438h48c4.417969 0 8-3.582032 8-8v-48c0-4.417969-3.582031-8-8-8h-48c-4.417968 0-8 3.582031-8 8v48c0 4.417968 3.582032 8 8 8zm8-48h32v32h-32zm0 0" data-original="#000000" class="active-path" data-old_color="#fab702" fill="#fab702"/><path d="m264.003906 312.023438h48c4.417969 0 8-3.582032 8-8v-48c0-4.417969-3.582031-8-8-8h-48c-4.417968 0-8 3.582031-8 8v48c0 4.417968 3.582032 8 8 8zm8-48h32v32h-32zm0 0" data-original="#000000" class="active-path" data-old_color="#fab702" fill="#fab702"/><path d="m360.003906 312.023438h48c4.417969 0 8-3.582032 8-8v-48c0-4.417969-3.582031-8-8-8h-48c-4.417968 0-8 3.582031-8 8v48c0 4.417968 3.582032 8 8 8zm8-48h32v32h-32zm0 0" data-original="#000000" class="active-path" data-old_color="#fab702" fill="#fab702"/><path d="m72.003906 384.023438h48c4.417969 0 8-3.582032 8-8v-48c0-4.417969-3.582031-8-8-8h-48c-4.417968 0-8 3.582031-8 8v48c0 4.417968 3.582032 8 8 8zm8-48h32v32h-32zm0 0" data-original="#000000" class="active-path" data-old_color="#fab702" fill="#fab702"/><path d="m168.003906 384.023438h48c4.417969 0 8-3.582032 8-8v-48c0-4.417969-3.582031-8-8-8h-48c-4.417968 0-8 3.582031-8 8v48c0 4.417968 3.582032 8 8 8zm8-48h32v32h-32zm0 0" data-original="#000000" class="active-path" data-old_color="#fab702" fill="#fab702"/><path d="m264.003906 384.023438h48c4.417969 0 8-3.582032 8-8v-48c0-4.417969-3.582031-8-8-8h-48c-4.417968 0-8 3.582031-8 8v48c0 4.417968 3.582032 8 8 8zm8-48h32v32h-32zm0 0" data-original="#000000" class="active-path" data-old_color="#fab702" fill="#fab702"/><path d="m360.003906 384.023438h48c4.417969 0 8-3.582032 8-8v-48c0-4.417969-3.582031-8-8-8h-48c-4.417968 0-8 3.582031-8 8v48c0 4.417968 3.582032 8 8 8zm8-48h32v32h-32zm0 0" data-original="#000000" class="active-path" data-old_color="#fab702" fill="#fab702"/></g> </svg>
