<?xml version="1.0"?>
<svg xmlns="http://www.w3.org/2000/svg" xmlns:xlink="http://www.w3.org/1999/xlink" version="1.1" id="Capa_1" x="0px" y="0px" width="512px" height="512px" viewBox="0 0 525.938 525.938" style="enable-background:new 0 0 525.938 525.938;" xml:space="preserve" class=""><g><g>
	<g>
		<path d="M518.173,66.938H7.765C3.481,66.938,0,70.418,0,74.702v3.586c0,4.293,3.481,7.774,7.765,7.774h510.398    c4.294,0,7.774-3.481,7.774-7.765v-3.586C525.938,70.418,522.457,66.938,518.173,66.938z" data-original="#000000" class="active-path" data-old_color="#fab702" fill="#fab702"/>
		<path d="M518.173,172.125H7.765c-4.284,0-7.765,3.481-7.765,7.765v3.586c0,4.293,3.481,7.774,7.765,7.774h510.398    c4.294,0,7.774-3.481,7.774-7.765v-3.586C525.938,175.606,522.457,172.125,518.173,172.125z" data-original="#000000" class="active-path" data-old_color="#fab702" fill="#fab702"/>
		<path d="M518.173,277.312H7.765c-4.284,0-7.765,3.48-7.765,7.765v3.586c0,4.294,3.481,7.774,7.765,7.774h510.398    c4.294,0,7.774-3.48,7.774-7.765v-3.586C525.938,280.793,522.457,277.312,518.173,277.312z" data-original="#000000" class="active-path" data-old_color="#fab702" fill="#fab702"/>
		<path d="M518.173,382.5H7.765C3.481,382.5,0,385.98,0,390.265v3.586c0,4.294,3.481,7.774,7.765,7.774h510.398    c4.294,0,7.774-3.48,7.774-7.765v-3.586C525.938,385.98,522.457,382.5,518.173,382.5z" data-original="#000000" class="active-path" data-old_color="#fab702" fill="#fab702"/>
		<rect x="19.125" y="95.625" width="19.125" height="66.938" data-original="#000000" class="active-path" data-old_color="#fab702" fill="#fab702"/>
		<rect x="248.625" y="95.625" width="19.125" height="66.938" data-original="#000000" class="active-path" data-old_color="#fab702" fill="#fab702"/>
		<rect x="258.188" y="306" width="19.125" height="66.938" data-original="#000000" class="active-path" data-old_color="#fab702" fill="#fab702"/>
		<rect x="57.375" y="200.812" width="19.125" height="66.938" data-original="#000000" class="active-path" data-old_color="#fab702" fill="#fab702"/>
		<rect x="19.125" y="306" width="19.125" height="66.938" data-original="#000000" class="active-path" data-old_color="#fab702" fill="#fab702"/>
		<rect x="57.375" y="411.188" width="19.125" height="47.812" data-original="#000000" class="active-path" data-old_color="#fab702" fill="#fab702"/>
		<rect x="487.688" y="95.625" width="19.125" height="66.938" data-original="#000000" class="active-path" data-old_color="#fab702" fill="#fab702"/>
		<rect x="449.438" y="200.812" width="19.125" height="66.938" data-original="#000000" class="active-path" data-old_color="#fab702" fill="#fab702"/>
		<rect x="487.688" y="306" width="19.125" height="66.938" data-original="#000000" class="active-path" data-old_color="#fab702" fill="#fab702"/>
		<rect x="449.438" y="411.188" width="19.125" height="47.812" data-original="#000000" class="active-path" data-old_color="#fab702" fill="#fab702"/>
		<path d="M47.812,95.625v66.938h191.25V95.625H47.812z M211.57,143.438c-5.938,0-10.758-4.819-10.758-10.758    s4.819-10.758,10.758-10.758s10.758,4.819,10.758,10.758S217.509,143.438,211.57,143.438z" data-original="#000000" class="active-path" data-old_color="#fab702" fill="#fab702"/>
		<path d="M286.875,306v66.938h191.25V306H286.875z M316.758,353.812c-5.938,0-10.758-4.819-10.758-10.758    s4.819-10.758,10.758-10.758s10.758,4.819,10.758,10.758S322.696,353.812,316.758,353.812z" data-original="#000000" class="active-path" data-old_color="#fab702" fill="#fab702"/>
	</g>
</g></g> </svg>
