<?xml version="1.0" encoding="utf-8"?>
<!-- Generator: Adobe Illustrator 18.0.0, SVG Export Plug-In . SVG Version: 6.00 Build 0)  -->
<!DOCTYPE svg PUBLIC "-//W3C//DTD SVG 1.1//EN" "http://www.w3.org/Graphics/SVG/1.1/DTD/svg11.dtd">
<svg version="1.1" id="Isolation_Mode" xmlns="http://www.w3.org/2000/svg" xmlns:xlink="http://www.w3.org/1999/xlink" x="0px"
	 y="0px" viewBox="0 0 80.8 56.7" enable-background="new 0 0 80.8 56.7" xml:space="preserve">
<g>
	<polygon fill-rule="evenodd" clip-rule="evenodd" fill="#3A91CF" points="0.2,8 40.4,0.1 80.6,8 80.6,56.6 0.2,56.6 	"/>
	<rect x="2.1" y="15" fill-rule="evenodd" clip-rule="evenodd" fill="#1A2A3A" width="76.4" height="41.5"/>
	<rect x="2.1" y="15" fill-rule="evenodd" clip-rule="evenodd" fill="#435D76" width="4" height="41.5"/>
	<rect x="74.5" y="15" fill-rule="evenodd" clip-rule="evenodd" fill="#435D76" width="4" height="41.5"/>
	<polygon fill-rule="evenodd" clip-rule="evenodd" fill="#327AAE" points="0.2,8 80.6,8 80.6,8 40.4,0.1 	"/>
	<rect x="2.1" y="15" fill-rule="evenodd" clip-rule="evenodd" fill="#435D76" width="76.4" height="4"/>
	<polygon fill-rule="evenodd" clip-rule="evenodd" fill="#20354A" points="6.1,19 12.9,23.2 12.9,56.6 6.1,56.6 	"/>
	<g>
		<g>
			<g>
				<rect x="27.9" y="31.2" fill-rule="evenodd" clip-rule="evenodd" fill="#FFA146" width="11.1" height="9.9"/>
				<rect x="27.8" y="31.2" fill-rule="evenodd" clip-rule="evenodd" fill="#FFA146" width="11.3" height="1.6"/>
				<polygon fill-rule="evenodd" clip-rule="evenodd" fill="#ED7425" points="39,41.1 34.8,41.1 27.9,32.8 39,32.8 				"/>
				<polygon fill-rule="evenodd" clip-rule="evenodd" fill="#DD3E13" points="38,31.2 36.8,31.2 36.8,33.5 37.1,33.3 37.3,33.4 
					37.6,33.3 38,33.5 				"/>
				<polygon fill-rule="evenodd" clip-rule="evenodd" fill="#DD3E13" points="30.1,31.2 28.9,31.2 28.9,33.5 29.1,33.3 29.4,33.4 
					29.7,33.3 30.1,33.5 				"/>
			</g>
			<g>
				<rect x="16.4" y="31.2" fill-rule="evenodd" clip-rule="evenodd" fill="#FFA146" width="11.1" height="9.9"/>
				<rect x="16.3" y="31.2" fill-rule="evenodd" clip-rule="evenodd" fill="#FFA146" width="11.3" height="1.6"/>
				<polygon fill-rule="evenodd" clip-rule="evenodd" fill="#ED7425" points="27.5,41.1 23.3,41.1 16.4,32.8 27.5,32.8 				"/>
				<polygon fill-rule="evenodd" clip-rule="evenodd" fill="#DD3E13" points="26.5,31.2 25.3,31.2 25.3,33.5 25.6,33.3 25.8,33.4 
					26.1,33.3 26.5,33.5 				"/>
				<polygon fill-rule="evenodd" clip-rule="evenodd" fill="#DD3E13" points="18.6,31.2 17.4,31.2 17.4,33.5 17.6,33.3 17.9,33.4 
					18.2,33.3 18.6,33.5 				"/>
			</g>
		</g>
		<g>
			<rect x="8.5" y="41.5" fill-rule="evenodd" clip-rule="evenodd" fill="#FFA146" width="15.6" height="15.1"/>
			<rect x="9.9" y="42.7" fill-rule="evenodd" clip-rule="evenodd" fill="#DD3E13" width="2" height="12.4"/>
			<rect x="11.8" y="42.7" fill-rule="evenodd" clip-rule="evenodd" fill="#DD3E13" width="2" height="12.4"/>
			<rect x="13.8" y="42.7" fill-rule="evenodd" clip-rule="evenodd" fill="#DD3E13" width="2" height="12.4"/>
			<rect x="15.7" y="42.7" fill-rule="evenodd" clip-rule="evenodd" fill="#DD3E13" width="2" height="12.4"/>
			<rect x="17.7" y="42.7" fill-rule="evenodd" clip-rule="evenodd" fill="#DD3E13" width="2" height="12.4"/>
			<rect x="19.7" y="42.7" fill-rule="evenodd" clip-rule="evenodd" fill="#DD3E13" width="2" height="12.4"/>
			<rect x="21.6" y="42.7" fill-rule="evenodd" clip-rule="evenodd" fill="#DD3E13" width="1.1" height="12.4"/>
			<rect x="10.2" y="43.7" fill-rule="evenodd" clip-rule="evenodd" fill="#ED7425" width="0.8" height="11.2"/>
			<rect x="12.2" y="43.7" fill-rule="evenodd" clip-rule="evenodd" fill="#ED7425" width="0.8" height="11.2"/>
			<rect x="14.1" y="43.7" fill-rule="evenodd" clip-rule="evenodd" fill="#ED7425" width="0.8" height="11.2"/>
			<rect x="16.1" y="43.7" fill-rule="evenodd" clip-rule="evenodd" fill="#ED7425" width="0.8" height="11.2"/>
			<rect x="18.1" y="43.7" fill-rule="evenodd" clip-rule="evenodd" fill="#ED7425" width="0.8" height="11.2"/>
			<rect x="20" y="43.7" fill-rule="evenodd" clip-rule="evenodd" fill="#ED7425" width="0.8" height="11.2"/>
			<rect x="22" y="43.7" fill-rule="evenodd" clip-rule="evenodd" fill="#ED7425" width="0.8" height="11.2"/>
			<rect x="11" y="42.7" fill-rule="evenodd" clip-rule="evenodd" fill="#FFA146" width="0.8" height="12.4"/>
			<rect x="13" y="42.7" fill-rule="evenodd" clip-rule="evenodd" fill="#FFA146" width="0.8" height="12.4"/>
			<rect x="14.9" y="42.7" fill-rule="evenodd" clip-rule="evenodd" fill="#FFA146" width="0.8" height="12.4"/>
			<rect x="16.9" y="42.7" fill-rule="evenodd" clip-rule="evenodd" fill="#FFA146" width="0.8" height="12.4"/>
			<rect x="18.8" y="42.7" fill-rule="evenodd" clip-rule="evenodd" fill="#FFA146" width="0.8" height="12.4"/>
			<rect x="20.8" y="42.7" fill-rule="evenodd" clip-rule="evenodd" fill="#FFA146" width="0.8" height="12.4"/>
		</g>
		<g>
			<rect x="24.5" y="41.5" fill-rule="evenodd" clip-rule="evenodd" fill="#FFA146" width="15.6" height="15.1"/>
			<rect x="25.9" y="42.7" fill-rule="evenodd" clip-rule="evenodd" fill="#DD3E13" width="2" height="12.4"/>
			<rect x="27.8" y="42.7" fill-rule="evenodd" clip-rule="evenodd" fill="#DD3E13" width="2" height="12.4"/>
			<rect x="29.8" y="42.7" fill-rule="evenodd" clip-rule="evenodd" fill="#DD3E13" width="2" height="12.4"/>
			<rect x="31.8" y="42.7" fill-rule="evenodd" clip-rule="evenodd" fill="#DD3E13" width="2" height="12.4"/>
			<rect x="33.7" y="42.7" fill-rule="evenodd" clip-rule="evenodd" fill="#DD3E13" width="2" height="12.4"/>
			<rect x="35.7" y="42.7" fill-rule="evenodd" clip-rule="evenodd" fill="#DD3E13" width="2" height="12.4"/>
			<rect x="37.7" y="42.7" fill-rule="evenodd" clip-rule="evenodd" fill="#DD3E13" width="1.1" height="12.4"/>
			<rect x="26.2" y="43.7" fill-rule="evenodd" clip-rule="evenodd" fill="#ED7425" width="0.8" height="11.2"/>
			<rect x="28.2" y="43.7" fill-rule="evenodd" clip-rule="evenodd" fill="#ED7425" width="0.8" height="11.2"/>
			<rect x="30.2" y="43.7" fill-rule="evenodd" clip-rule="evenodd" fill="#ED7425" width="0.8" height="11.2"/>
			<rect x="32.1" y="43.7" fill-rule="evenodd" clip-rule="evenodd" fill="#ED7425" width="0.8" height="11.2"/>
			<rect x="34.1" y="43.7" fill-rule="evenodd" clip-rule="evenodd" fill="#ED7425" width="0.8" height="11.2"/>
			<rect x="36.1" y="43.7" fill-rule="evenodd" clip-rule="evenodd" fill="#ED7425" width="0.8" height="11.2"/>
			<rect x="38" y="43.7" fill-rule="evenodd" clip-rule="evenodd" fill="#ED7425" width="0.8" height="11.2"/>
			<rect x="27" y="42.7" fill-rule="evenodd" clip-rule="evenodd" fill="#FFA146" width="0.8" height="12.4"/>
			<rect x="29" y="42.7" fill-rule="evenodd" clip-rule="evenodd" fill="#FFA146" width="0.8" height="12.4"/>
			<rect x="30.9" y="42.7" fill-rule="evenodd" clip-rule="evenodd" fill="#FFA146" width="0.8" height="12.4"/>
			<rect x="32.9" y="42.7" fill-rule="evenodd" clip-rule="evenodd" fill="#FFA146" width="0.8" height="12.4"/>
			<rect x="34.9" y="42.7" fill-rule="evenodd" clip-rule="evenodd" fill="#FFA146" width="0.8" height="12.4"/>
			<rect x="36.8" y="42.7" fill-rule="evenodd" clip-rule="evenodd" fill="#FFA146" width="0.8" height="12.4"/>
		</g>
		<rect x="16.4" y="41.1" fill-rule="evenodd" clip-rule="evenodd" fill="#DD3E13" width="22.5" height="0.4"/>
		<rect x="24.2" y="41.5" fill-rule="evenodd" clip-rule="evenodd" fill="#DD3E13" width="0.4" height="15.1"/>
		<g>
			<rect x="40.5" y="46.7" fill-rule="evenodd" clip-rule="evenodd" fill="#FFA146" width="11.1" height="9.9"/>
			<rect x="40.4" y="46.7" fill-rule="evenodd" clip-rule="evenodd" fill="#FFA146" width="11.3" height="1.7"/>
			<polygon fill-rule="evenodd" clip-rule="evenodd" fill="#ED7425" points="51.6,56.6 47.4,56.6 40.5,48.3 51.6,48.3 			"/>
			<polygon fill-rule="evenodd" clip-rule="evenodd" fill="#DD3E13" points="50.6,46.7 49.4,46.7 49.4,48.9 49.7,48.8 49.9,48.9 
				50.3,48.7 50.6,48.9 			"/>
			<polygon fill-rule="evenodd" clip-rule="evenodd" fill="#DD3E13" points="42.7,46.7 41.5,46.7 41.5,48.9 41.7,48.8 42,48.9 
				42.3,48.7 42.7,48.9 			"/>
		</g>
	</g>
	<polygon fill-rule="evenodd" clip-rule="evenodd" fill="#344453" points="6.1,19 12.9,23.2 67.7,23.2 74.5,19 	"/>
	<polygon fill-rule="evenodd" clip-rule="evenodd" fill="#20354A" points="74.5,19 67.7,23.2 67.7,56.6 74.5,56.6 	"/>
	<g>
		<rect x="52" y="45.6" fill-rule="evenodd" clip-rule="evenodd" fill="#ED7425" width="9.4" height="10.9"/>
		<rect x="52" y="45.6" fill-rule="evenodd" clip-rule="evenodd" fill="#FFA146" width="4.7" height="10.9"/>
		<g>
			<polygon fill-rule="evenodd" clip-rule="evenodd" fill="#435D76" points="53.6,54.3 53.6,55.7 53.1,55.7 53.1,54.3 52.7,54.3 
				53,53.7 53.4,53.1 53.7,53.7 54,54.3 			"/>
			<polygon fill-rule="evenodd" clip-rule="evenodd" fill="#435D76" points="55,54.3 55,55.7 54.5,55.7 54.5,54.3 54.1,54.3 
				54.4,53.7 54.7,53.1 55,53.7 55.3,54.3 			"/>
			<rect x="52.9" y="55.7" fill-rule="evenodd" clip-rule="evenodd" fill="#435D76" width="2.3" height="0.2"/>
		</g>
		<g>
			<polygon fill-rule="evenodd" clip-rule="evenodd" fill="#DD3E13" points="52.8,45.6 53.9,45.6 53.9,47.7 53.7,47.6 53.5,47.7 
				53.2,47.5 52.8,47.7 			"/>
			<polygon fill-rule="evenodd" clip-rule="evenodd" fill="#DD3E13" points="59.5,45.6 60.6,45.6 60.6,47.7 60.4,47.6 60.2,47.7 
				59.9,47.5 59.5,47.7 			"/>
		</g>
		<g>
			<rect x="61.6" y="48.1" fill-rule="evenodd" clip-rule="evenodd" fill="#ED7425" width="9.4" height="8.4"/>
			<rect x="61.6" y="48.1" fill-rule="evenodd" clip-rule="evenodd" fill="#FFA146" width="4.7" height="8.4"/>
			<polygon fill-rule="evenodd" clip-rule="evenodd" fill="#435D76" points="63.2,54.3 63.2,55.7 62.7,55.7 62.7,54.3 62.4,54.3 
				62.7,53.7 63,53.1 63.3,53.7 63.6,54.3 			"/>
			<polygon fill-rule="evenodd" clip-rule="evenodd" fill="#435D76" points="64.6,54.3 64.6,55.7 64.1,55.7 64.1,54.3 63.7,54.3 
				64,53.7 64.3,53.1 64.6,53.7 64.9,54.3 			"/>
			<rect x="62.5" y="55.7" fill-rule="evenodd" clip-rule="evenodd" fill="#435D76" width="2.3" height="0.2"/>
			<g>
				<polygon fill-rule="evenodd" clip-rule="evenodd" fill="#DD3E13" points="62.4,48.1 63.6,48.1 63.6,50.2 63.3,50.1 63.1,50.2 
					62.8,50 62.4,50.2 				"/>
				<polygon fill-rule="evenodd" clip-rule="evenodd" fill="#DD3E13" points="69.1,48.1 70.2,48.1 70.2,50.2 70,50.1 69.8,50.2 
					69.5,50 69.1,50.2 				"/>
			</g>
		</g>
		<rect x="61.4" y="48.1" fill-rule="evenodd" clip-rule="evenodd" fill="#DD3E13" width="0.2" height="8.4"/>
	</g>
</g>
</svg>
